<svg version="1.1" xmlns="http://www.w3.org/2000/svg" xmlns:xlink="http://www.w3.org/1999/xlink" width="839" height="282"><defs/><g><g transform="translate(-94,-14) scale(1,1)"><path fill="#C0C0C0" stroke="none" d="M 351 41 L 476 41 L 476 142 L 351 142" opacity="0.2"/></g><g transform="translate(-94,-14) scale(1,1)"><path fill="#C0C0C0" stroke="none" d="M 351 41 L 361 31 L 486 31 L 476 41" opacity="0.2"/></g><g transform="translate(-94,-14) scale(1,1)"><path fill="#C0C0C0" stroke="none" d="M 486 31 L 476 41 L 476 142 L 486 132" opacity="0.2"/></g><g transform="translate(-94,-14) scale(1,1)"><path fill="#ffffff" stroke="none" d="M 344 34 L 469 34 L 469 135 L 344 135"/></g><g transform="translate(-94,-14) scale(1,1)"><path fill="#ffffff" stroke="none" d="M 344 34 L 354 24 L 479 24 L 469 34"/></g><g transform="translate(-94,-14) scale(1,1)"><path fill="#ffffff" stroke="none" d="M 479 24 L 469 34 L 469 135 L 479 125"/></g><g transform="translate(-94,-14) scale(1,1)"><path fill="none" stroke="#000000" d="M 344 34 L 469 34 L 469 135 L 344 135 L 344 34" stroke-miterlimit="10"/></g><g transform="translate(-94,-14) scale(1,1)"><path fill="none" stroke="#000000" d="M 344 34 L 354 24 L 479 24 L 469 34 L 344 34" stroke-miterlimit="10"/></g><g transform="translate(-94,-14) scale(1,1)"><path fill="none" stroke="#000000" d="M 479 24 L 469 34 L 469 135 L 479 125 L 479 24" stroke-miterlimit="10"/></g><g transform="translate(-94,-14) scale(1,1)"><g><path fill="none" stroke="none"/><text fill="#000000" stroke="none" font-family="Arial" font-size="13px" font-style="normal" font-weight="bold" text-decoration="none" x="397.970458984375" y="51.5">PC</text></g></g><g transform="translate(-94,-14) scale(1,1)"><rect fill="#C0C0C0" stroke="none" x="369" y="71" width="101.341796875" height="44" opacity="0.2"/></g><g transform="translate(-94,-14) scale(1,1)"><rect fill="#ffffff" stroke="none" x="362" y="64" width="101.341796875" height="44"/></g><g transform="translate(-94,-14) scale(1,1)"><path fill="none" stroke="#000000" d="M 362 64 L 463.341796875 64 L 463.341796875 108 L 362 108 L 362 64 Z Z" stroke-miterlimit="10"/></g><g transform="translate(-94,-14) scale(1,1)"><rect fill="#ffffff" stroke="none" x="352" y="71" width="20" height="10"/></g><g transform="translate(-94,-14) scale(1,1)"><path fill="none" stroke="#000000" d="M 352 71 L 372 71 L 372 81 L 352 81 L 352 71 Z Z" stroke-miterlimit="10"/></g><g transform="translate(-94,-14) scale(1,1)"><rect fill="#ffffff" stroke="none" x="352" y="91" width="20" height="10"/></g><g transform="translate(-94,-14) scale(1,1)"><path fill="none" stroke="#000000" d="M 352 91 L 372 91 L 372 101 L 352 101 L 352 91 Z Z" stroke-miterlimit="10"/></g><g transform="translate(-94,-14) scale(1,1)"><g><path fill="none" stroke="none"/><text fill="#000000" stroke="none" font-family="Arial" font-size="13px" font-style="normal" font-weight="bold" text-decoration="none" x="376.5" y="81.5">chordMapper</text></g></g><g transform="translate(-94,-14) scale(1,1)"><path fill="#C0C0C0" stroke="none" d="M 111 57 L 236 57 L 236 134 L 111 134" opacity="0.2"/></g><g transform="translate(-94,-14) scale(1,1)"><path fill="#C0C0C0" stroke="none" d="M 111 57 L 121 47 L 246 47 L 236 57" opacity="0.2"/></g><g transform="translate(-94,-14) scale(1,1)"><path fill="#C0C0C0" stroke="none" d="M 246 47 L 236 57 L 236 134 L 246 124" opacity="0.2"/></g><g transform="translate(-94,-14) scale(1,1)"><path fill="#ffffff" stroke="none" d="M 104 50 L 229 50 L 229 127 L 104 127"/></g><g transform="translate(-94,-14) scale(1,1)"><path fill="#ffffff" stroke="none" d="M 104 50 L 114 40 L 239 40 L 229 50"/></g><g transform="translate(-94,-14) scale(1,1)"><path fill="#ffffff" stroke="none" d="M 239 40 L 229 50 L 229 127 L 239 117"/></g><g transform="translate(-94,-14) scale(1,1)"><path fill="none" stroke="#000000" d="M 104 50 L 229 50 L 229 127 L 104 127 L 104 50" stroke-miterlimit="10"/></g><g transform="translate(-94,-14) scale(1,1)"><path fill="none" stroke="#000000" d="M 104 50 L 114 40 L 239 40 L 229 50 L 104 50" stroke-miterlimit="10"/></g><g transform="translate(-94,-14) scale(1,1)"><path fill="none" stroke="#000000" d="M 239 40 L 229 50 L 229 127 L 239 117 L 239 40" stroke-miterlimit="10"/></g><g transform="translate(-94,-14) scale(1,1)"><g><path fill="none" stroke="none"/><text fill="#000000" stroke="none" font-family="Arial" font-size="13px" font-style="normal" font-weight="bold" text-decoration="none" x="139.9208984375" y="67.5">MINILAB</text></g></g><g transform="translate(-94,-14) scale(1,1)"><path fill="none" stroke="#000000" d="M 343 81 L 241 83" stroke-miterlimit="10"/></g><g transform="translate(-94,-14) scale(1,1)"><path fill="#000000" stroke="none" d="M 330.22900390625 62 L 340.22900390625 67 L 330.22900390625 72"/></g><g transform="translate(-94,-14) scale(1,1)"><g><path fill="none" stroke="none"/><text fill="#000000" stroke="none" font-family="Arial" font-size="13px" font-style="normal" font-weight="normal" text-decoration="none" x="262.5" y="71.5">+midi input</text></g></g><g transform="translate(-94,-14) scale(1,1)"><path fill="#C0C0C0" stroke="none" d="M 591 73 L 673.39453125 73 L 673.39453125 106 L 591 106" opacity="0.2"/></g><g transform="translate(-94,-14) scale(1,1)"><path fill="#C0C0C0" stroke="none" d="M 591 73 L 601 63 L 683.39453125 63 L 673.39453125 73" opacity="0.2"/></g><g transform="translate(-94,-14) scale(1,1)"><path fill="#C0C0C0" stroke="none" d="M 683.39453125 63 L 673.39453125 73 L 673.39453125 106 L 683.39453125 96" opacity="0.2"/></g><g transform="translate(-94,-14) scale(1,1)"><path fill="#ffffff" stroke="none" d="M 584 66 L 666.39453125 66 L 666.39453125 99 L 584 99"/></g><g transform="translate(-94,-14) scale(1,1)"><path fill="#ffffff" stroke="none" d="M 584 66 L 594 56 L 676.39453125 56 L 666.39453125 66"/></g><g transform="translate(-94,-14) scale(1,1)"><path fill="#ffffff" stroke="none" d="M 676.39453125 56 L 666.39453125 66 L 666.39453125 99 L 676.39453125 89"/></g><g transform="translate(-94,-14) scale(1,1)"><path fill="none" stroke="#000000" d="M 584 66 L 666.39453125 66 L 666.39453125 99 L 584 99 L 584 66" stroke-miterlimit="10"/></g><g transform="translate(-94,-14) scale(1,1)"><path fill="none" stroke="#000000" d="M 584 66 L 594 56 L 676.39453125 56 L 666.39453125 66 L 584 66" stroke-miterlimit="10"/></g><g transform="translate(-94,-14) scale(1,1)"><path fill="none" stroke="#000000" d="M 676.39453125 56 L 666.39453125 66 L 666.39453125 99 L 676.39453125 89 L 676.39453125 56" stroke-miterlimit="10"/></g><g transform="translate(-94,-14) scale(1,1)"><g><path fill="none" stroke="none"/><text fill="#000000" stroke="none" font-family="Arial" font-size="13px" font-style="normal" font-weight="bold" text-decoration="none" x="588.5" y="83.5">MIDI splitter</text></g></g><g transform="translate(-94,-14) scale(1,1)"><path fill="none" stroke="#000000" d="M 481 79 L 583 78" stroke-miterlimit="10"/></g><g transform="translate(-94,-14) scale(1,1)"><path fill="#000000" stroke="none" d="M 572.1826171875 58 L 582.1826171875 63 L 572.1826171875 68"/></g><g transform="translate(-94,-14) scale(1,1)"><g><path fill="none" stroke="none"/><text fill="#000000" stroke="none" font-family="Arial" font-size="13px" font-style="normal" font-weight="normal" text-decoration="none" x="496.5" y="67.5">+midi output</text></g></g><g transform="translate(-94,-14) scale(1,1)"><path fill="#C0C0C0" stroke="none" d="M 711 161 L 788 161 L 788 194 L 711 194" opacity="0.2"/></g><g transform="translate(-94,-14) scale(1,1)"><path fill="#C0C0C0" stroke="none" d="M 711 161 L 721 151 L 798 151 L 788 161" opacity="0.2"/></g><g transform="translate(-94,-14) scale(1,1)"><path fill="#C0C0C0" stroke="none" d="M 798 151 L 788 161 L 788 194 L 798 184" opacity="0.2"/></g><g transform="translate(-94,-14) scale(1,1)"><path fill="#ffffff" stroke="none" d="M 704 154 L 781 154 L 781 187 L 704 187"/></g><g transform="translate(-94,-14) scale(1,1)"><path fill="#ffffff" stroke="none" d="M 704 154 L 714 144 L 791 144 L 781 154"/></g><g transform="translate(-94,-14) scale(1,1)"><path fill="#ffffff" stroke="none" d="M 791 144 L 781 154 L 781 187 L 791 177"/></g><g transform="translate(-94,-14) scale(1,1)"><path fill="none" stroke="#000000" d="M 704 154 L 781 154 L 781 187 L 704 187 L 704 154" stroke-miterlimit="10"/></g><g transform="translate(-94,-14) scale(1,1)"><path fill="none" stroke="#000000" d="M 704 154 L 714 144 L 791 144 L 781 154 L 704 154" stroke-miterlimit="10"/></g><g transform="translate(-94,-14) scale(1,1)"><path fill="none" stroke="#000000" d="M 791 144 L 781 154 L 781 187 L 791 177 L 791 144" stroke-miterlimit="10"/></g><g transform="translate(-94,-14) scale(1,1)"><g><path fill="none" stroke="none"/><text fill="#000000" stroke="none" font-family="Arial" font-size="13px" font-style="normal" font-weight="bold" text-decoration="none" x="735.055908203125" y="171.5">fm</text></g></g><g transform="translate(-94,-14) scale(1,1)"><path fill="none" stroke="#000000" d="M 661 101 L 717 143" stroke-miterlimit="10"/></g><g transform="translate(-94,-14) scale(1,1)"><path fill="#C0C0C0" stroke="none" d="M 607 169 L 684 169 L 684 202 L 607 202" opacity="0.2"/></g><g transform="translate(-94,-14) scale(1,1)"><path fill="#C0C0C0" stroke="none" d="M 607 169 L 617 159 L 694 159 L 684 169" opacity="0.2"/></g><g transform="translate(-94,-14) scale(1,1)"><path fill="#C0C0C0" stroke="none" d="M 694 159 L 684 169 L 684 202 L 694 192" opacity="0.2"/></g><g transform="translate(-94,-14) scale(1,1)"><path fill="#ffffff" stroke="none" d="M 600 162 L 677 162 L 677 195 L 600 195"/></g><g transform="translate(-94,-14) scale(1,1)"><path fill="#ffffff" stroke="none" d="M 600 162 L 610 152 L 687 152 L 677 162"/></g><g transform="translate(-94,-14) scale(1,1)"><path fill="#ffffff" stroke="none" d="M 687 152 L 677 162 L 677 195 L 687 185"/></g><g transform="translate(-94,-14) scale(1,1)"><path fill="none" stroke="#000000" d="M 600 162 L 677 162 L 677 195 L 600 195 L 600 162" stroke-miterlimit="10"/></g><g transform="translate(-94,-14) scale(1,1)"><path fill="none" stroke="#000000" d="M 600 162 L 610 152 L 687 152 L 677 162 L 600 162" stroke-miterlimit="10"/></g><g transform="translate(-94,-14) scale(1,1)"><path fill="none" stroke="#000000" d="M 687 152 L 677 162 L 677 195 L 687 185 L 687 152" stroke-miterlimit="10"/></g><g transform="translate(-94,-14) scale(1,1)"><g><path fill="none" stroke="none"/><text fill="#000000" stroke="none" font-family="Arial" font-size="13px" font-style="normal" font-weight="bold" text-decoration="none" x="616.59912109375" y="179.5">sample</text></g></g><g transform="translate(-94,-14) scale(1,1)"><path fill="none" stroke="#000000" d="M 633 101 L 641 151" stroke-miterlimit="10"/></g><g transform="translate(-94,-14) scale(1,1)"><path fill="#ffffff" stroke="none" d="M 440 184 L 581 184 L 591 194 L 591 285 L 440 285 L 440 184"/></g><g transform="translate(-94,-14) scale(1,1)"><path fill="none" stroke="#000000" d="M 440 184 L 581 184 L 591 194 L 591 285 L 440 285 L 440 184 L 440 184" stroke-miterlimit="10"/></g><g transform="translate(-94,-14) scale(1,1)"><path fill="none" stroke="#000000" d="M 581 184 L 581 194 L 591 194 L 581 184" stroke-miterlimit="10"/></g><g transform="translate(-94,-14) scale(1,1)"><g><path fill="none" stroke="none"/><text fill="#000000" stroke="none" font-family="Arial" font-size="13px" font-style="normal" font-weight="normal" text-decoration="none" x="445" y="199">converted key`s NoteOn</text><text fill="#000000" stroke="none" font-family="Arial" font-size="13px" font-style="normal" font-weight="normal" text-decoration="none" x="445" y="211">and NoteOff for fm.</text><text fill="#000000" stroke="none" font-family="Arial" font-size="13px" font-style="normal" font-weight="normal" text-decoration="none" x="445" y="224">Realtime command for</text><text fill="#000000" stroke="none" font-family="Arial" font-size="13px" font-style="normal" font-weight="normal" text-decoration="none" x="445" y="237">sample as drums.</text><text fill="#000000" stroke="none" font-family="Arial" font-size="13px" font-style="normal" font-weight="normal" text-decoration="none" x="445" y="250">Commands are sent</text><text fill="#000000" stroke="none" font-family="Arial" font-size="13px" font-style="normal" font-weight="normal" text-decoration="none" x="445" y="263">through USB to MIDI</text><text fill="#000000" stroke="none" font-family="Arial" font-size="13px" font-style="normal" font-weight="normal" text-decoration="none" x="445" y="276">interface.</text></g></g><g transform="translate(-94,-14) scale(1,1)"><path fill="none" stroke="#000000" d="M 532 78 L 521 183" stroke-miterlimit="10" stroke-dasharray="3"/></g><g transform="translate(-94,-14) scale(1,1)"><path fill="#ffffff" stroke="none" d="M 240 168 L 328 168 L 338 178 L 338 282 L 240 282 L 240 168"/></g><g transform="translate(-94,-14) scale(1,1)"><path fill="none" stroke="#000000" d="M 240 168 L 328 168 L 338 178 L 338 282 L 240 282 L 240 168 L 240 168" stroke-miterlimit="10"/></g><g transform="translate(-94,-14) scale(1,1)"><path fill="none" stroke="#000000" d="M 328 168 L 328 178 L 338 178 L 328 168" stroke-miterlimit="10"/></g><g transform="translate(-94,-14) scale(1,1)"><g><path fill="none" stroke="none"/><text fill="#000000" stroke="none" font-family="Arial" font-size="13px" font-style="normal" font-weight="normal" text-decoration="none" x="245" y="182">pushed key's</text><text fill="#000000" stroke="none" font-family="Arial" font-size="13px" font-style="normal" font-weight="normal" text-decoration="none" x="245" y="195">NoteOn and</text><text fill="#000000" stroke="none" font-family="Arial" font-size="13px" font-style="normal" font-weight="normal" text-decoration="none" x="245" y="208">NoteOff.</text><text fill="#000000" stroke="none" font-family="Arial" font-size="13px" font-style="normal" font-weight="normal" text-decoration="none" x="245" y="221">Commands are</text><text fill="#000000" stroke="none" font-family="Arial" font-size="13px" font-style="normal" font-weight="normal" text-decoration="none" x="245" y="234">sent through</text><text fill="#000000" stroke="none" font-family="Arial" font-size="13px" font-style="normal" font-weight="normal" text-decoration="none" x="245" y="247">USB-midi</text><text fill="#000000" stroke="none" font-family="Arial" font-size="13px" font-style="normal" font-weight="normal" text-decoration="none" x="245" y="260">cable.</text></g></g><g transform="translate(-94,-14) scale(1,1)"><path fill="none" stroke="#000000" d="M 292 82 L 290 167" stroke-miterlimit="10" stroke-dasharray="3"/></g><g transform="translate(-94,-14) scale(1,1)"><path fill="#ffffff" stroke="none" d="M 824 120 L 912 120 L 922 130 L 922 197 L 824 197 L 824 120"/></g><g transform="translate(-94,-14) scale(1,1)"><path fill="none" stroke="#000000" d="M 824 120 L 912 120 L 922 130 L 922 197 L 824 197 L 824 120 L 824 120" stroke-miterlimit="10"/></g><g transform="translate(-94,-14) scale(1,1)"><path fill="none" stroke="#000000" d="M 912 120 L 912 130 L 922 130 L 912 120" stroke-miterlimit="10"/></g><g transform="translate(-94,-14) scale(1,1)"><g><path fill="none" stroke="none"/><text fill="#000000" stroke="none" font-family="Arial" font-size="13px" font-style="normal" font-weight="normal" text-decoration="none" x="829" y="134">!!CAUTION!!</text></g></g><g transform="translate(-94,-14) scale(1,1)"><g><path fill="none" stroke="none"/><text fill="#000000" stroke="none" font-family="Arial" font-size="13px" font-style="normal" font-weight="normal" text-decoration="none" x="829" y="149">Set it ignore</text><text fill="#000000" stroke="none" font-family="Arial" font-size="13px" font-style="normal" font-weight="normal" text-decoration="none" x="829" y="162">MIDI-Clock</text><text fill="#000000" stroke="none" font-family="Arial" font-size="13px" font-style="normal" font-weight="normal" text-decoration="none" x="829" y="175">input.</text></g></g><g transform="translate(-94,-14) scale(1,1)"><path fill="none" stroke="#000000" d="M 793 163 L 823 162" stroke-miterlimit="10" stroke-dasharray="3"/></g><g transform="translate(-94,-14) scale(1,1)"><path fill="#ffffff" stroke="none" d="M 112 176 L 200 176 L 210 186 L 210 238 L 112 238 L 112 176"/></g><g transform="translate(-94,-14) scale(1,1)"><path fill="none" stroke="#000000" d="M 112 176 L 200 176 L 210 186 L 210 238 L 112 238 L 112 176 L 112 176" stroke-miterlimit="10"/></g><g transform="translate(-94,-14) scale(1,1)"><path fill="none" stroke="#000000" d="M 200 176 L 200 186 L 210 186 L 200 176" stroke-miterlimit="10"/></g><g transform="translate(-94,-14) scale(1,1)"><g><path fill="none" stroke="none"/><text fill="#000000" stroke="none" font-family="Arial" font-size="13px" font-style="normal" font-weight="normal" text-decoration="none" x="117" y="190">The channel</text><text fill="#000000" stroke="none" font-family="Arial" font-size="13px" font-style="normal" font-weight="normal" text-decoration="none" x="117" y="203">setting must</text><text fill="#000000" stroke="none" font-family="Arial" font-size="13px" font-style="normal" font-weight="normal" text-decoration="none" x="117" y="216">match with fm.</text></g></g><g transform="translate(-94,-14) scale(1,1)"><path fill="none" stroke="#000000" d="M 168 129 L 164 175" stroke-miterlimit="10" stroke-dasharray="3"/></g></g></svg>